<svg xmlns="http://www.w3.org/2000/svg" width="228.191" height="298.558" viewBox="0 0 228.191 298.558">
  <g id="HERO" transform="translate(-132.19 129.973)">
    <g id="Logo_Completo" data-name="Logo Completo" transform="translate(137.913 -129.973)">
      <g id="_5a8c9140-ece8-4c3c-9aa9-9e92efda329a" data-name="5a8c9140-ece8-4c3c-9aa9-9e92efda329a" transform="translate(0 226.432)">
        <path id="Trazado_1" data-name="Trazado 1" d="M37.238,48.8V55.79H53.222c-.316,10.4-8.15,16.67-18.7,16.67-12.951,0-20.975-9.858-20.975-21.39,0-11.591,8.087-20.972,21.48-21.091A22.387,22.387,0,0,1,48.546,34.1L53.6,27.29c-2.653-2.091-9.477-5.2-18.511-5.2C16.01,22.092,3.754,35,3.754,51.07c0,16.311,12.193,29.277,30.957,29.277,18.321,0,28.114-12.726,28.114-26.528V48.8Zm66.21,0V55.79h16.047c-.379,10.4-8.213,16.67-18.7,16.67-13.014,0-21.038-9.858-21.038-21.39,0-11.591,8.15-20.972,21.48-21.091A22.622,22.622,0,0,1,114.819,34.1l5.054-6.811c-2.717-2.091-9.477-5.2-18.511-5.2C82.283,22.092,70.027,35,70.027,51.07c0,16.311,12.13,29.277,30.957,29.277,18.321,0,28.114-12.726,28.114-26.528V48.8Zm74.3,9.8c0-11.77-8.4-19.956-20.6-19.956-12.509,0-21.543,9.141-21.543,20.792,0,11.711,8.971,20.733,22.681,20.733,7.2,0,13.267-2.33,17.058-6.333l-6.191-4.72c-2.653,2.868-6.255,4.362-10.993,4.362-7.834,0-12.509-5.138-13.141-12.189h32.726Zm-20.6-13.145c6.57,0,10.8,3.7,11.751,9.978H145.4C146.66,49.457,151.02,45.454,157.148,45.454Zm37.906,26.528,23.376-26.05V39.658H184.883v7.23h22.238L183.493,73.3v5.915h36.516v-7.23Z" transform="translate(-3.754 -22.092)" fill="#fff"/>
      </g>
      <g id="b59d8095-607a-4f04-b380-c96d60f8368c" transform="translate(2.284 -28)">
        <g id="Logo" transform="translate(0 28)">
          <path id="Trazado_2" data-name="Trazado 2" d="M8.949,119.581a11,11,0,0,0,12.029-2.393l96.209-96.209A11.039,11.039,0,0,0,109.38,2.133H21.952a10.971,10.971,0,0,0-7.807,3.235L5.368,14.145a10.973,10.973,0,0,0-3.235,7.807v87.43a11.007,11.007,0,0,0,6.816,10.2Zm2.016-97.629a2.215,2.215,0,0,1,.647-1.561l8.781-8.779a2.186,2.186,0,0,1,1.559-.647h87.43a2.208,2.208,0,0,1,1.563,3.769L14.734,110.943a2.207,2.207,0,0,1-3.769-1.561Zm196.315,74.7a11,11,0,0,0-12.029,2.393L99.042,195.252A11.039,11.039,0,0,0,106.85,214.1h87.43a10.969,10.969,0,0,0,7.805-3.235l8.779-8.779a10.969,10.969,0,0,0,3.235-7.805v-87.43a11.009,11.009,0,0,0-6.818-10.2Zm-2.016,97.629a2.192,2.192,0,0,1-.647,1.561l-8.779,8.779a2.192,2.192,0,0,1-1.561.647H106.85a2.207,2.207,0,0,1-1.563-3.769L201.5,105.287a2.091,2.091,0,0,1,1.517-.658,2.32,2.32,0,0,1,.89.181,2.13,2.13,0,0,1,1.362,2.038v87.43ZM203.057,2.133H159.341a10.962,10.962,0,0,0-7.805,3.235L5.368,151.536a10.969,10.969,0,0,0-3.235,7.805v43.715a11.052,11.052,0,0,0,11.04,11.04H56.888a10.969,10.969,0,0,0,7.805-3.235L210.862,64.693a10.969,10.969,0,0,0,3.235-7.805V13.173A11.052,11.052,0,0,0,203.057,2.133Zm2.208,54.755a2.224,2.224,0,0,1-.647,1.563L58.449,204.618a2.2,2.2,0,0,1-1.561.647H13.173a2.208,2.208,0,0,1-2.208-2.208V159.341a2.193,2.193,0,0,1,.647-1.561L157.783,11.61a2.2,2.2,0,0,1,1.559-.645h43.715a2.21,2.21,0,0,1,2.208,2.208Z" transform="translate(-2.133 -2.133)" fill="#3da4b3"/>
        </g>
      </g>
    </g>
    <g id="b4d9e5e7-13f4-47c6-8443-48d0c0510201" transform="translate(116.19 158.723)">
      <path id="Trazado_3" data-name="Trazado 3" d="M6.205,4.6V3.416H.819v8.847H6.205V11.078H2.223V8.395h3.3V7.285h-3.3V4.6Zm4.39,7.842c1.384,0,3.015-.711,3.015-2.551,0-1.4-1.1-2.219-2.437-2.683-1.328-.484-1.83-.863-1.83-1.593a1.293,1.293,0,0,1,1.413-1.2,2.455,2.455,0,0,1,1.783.787l.92-.939a3.715,3.715,0,0,0-2.7-1.062A2.657,2.657,0,0,0,7.893,5.626c0,1.621,1.109,2.19,2.579,2.712.891.322,1.64.74,1.64,1.6a1.433,1.433,0,0,1-1.6,1.29,2.671,2.671,0,0,1-2.2-1.109l-1,.958A4.1,4.1,0,0,0,10.6,12.444ZM20.628,3.416H14.351v1.2H16.8v7.643H18.21V4.621h2.418Zm6.789,8.847h1.527l-3.5-8.847H24.022l-3.5,8.847h1.517l.844-2.276,3.7-.019ZM23.3,8.869l1.441-3.907,1.422,3.907Zm9.207-5.452H29.883v8.847h2.627c3.082,0,4.77-1.944,4.77-4.438C37.279,5.351,35.591,3.416,32.509,3.416Zm-.218,7.7h-1V4.564h1c2.38,0,3.527,1.29,3.527,3.262C35.818,9.817,34.671,11.116,32.291,11.116Zm8.183-9.16L41.565.79,40.323.581,38.549,2.724h.512C39.469,2.724,39.782,2.667,40.474,1.956Zm-.095,1.46H38.967v8.847h1.413Zm4.808,9.027c1.384,0,3.015-.711,3.015-2.551,0-1.4-1.09-2.219-2.427-2.683-1.328-.484-1.83-.863-1.83-1.593a1.293,1.293,0,0,1,1.413-1.2A2.47,2.47,0,0,1,47.14,5.2l.91-.939A3.675,3.675,0,0,0,45.358,3.2a2.657,2.657,0,0,0-2.864,2.427c0,1.621,1.109,2.19,2.57,2.712.9.322,1.65.74,1.65,1.6a1.438,1.438,0,0,1-1.6,1.29,2.659,2.659,0,0,1-2.2-1.109l-1,.958A4.092,4.092,0,0,0,45.187,12.444ZM55.229,3.416H48.951v1.2H51.4v7.643h1.413V4.621h2.418Zm2.57,0H56.4v8.847h1.4Zm6.363,9.027A4.7,4.7,0,0,0,66.93,11.6l-.749-1.119a3.135,3.135,0,0,1-2.02.711,3.2,3.2,0,0,1-3.2-3.376,3.19,3.19,0,0,1,3.2-3.366,3.135,3.135,0,0,1,2.02.711l.749-1.119A4.7,4.7,0,0,0,64.161,3.2a4.494,4.494,0,0,0-4.656,4.618A4.49,4.49,0,0,0,64.161,12.444Zm9.947-.18h1.517l-3.5-8.847H70.7l-3.5,8.847h1.527l.834-2.276,3.7-.019ZM69.983,8.869l1.441-3.907,1.422,3.907Zm9.169,3.575c1.384,0,3.015-.711,3.015-2.551,0-1.4-1.09-2.219-2.437-2.683C78.4,6.726,77.91,6.346,77.91,5.616a1.293,1.293,0,0,1,1.413-1.2,2.47,2.47,0,0,1,1.783.787l.91-.939A3.692,3.692,0,0,0,79.323,3.2,2.657,2.657,0,0,0,76.46,5.626c0,1.621,1.1,2.19,2.57,2.712.9.322,1.65.74,1.65,1.6a1.442,1.442,0,0,1-1.612,1.29,2.655,2.655,0,0,1-2.19-1.109l-1,.958A4.092,4.092,0,0,0,79.153,12.444ZM90.579,3.416h-3.1v8.847h1.413V8.755l1.688-.009A2.713,2.713,0,0,0,93.423,6.09,2.7,2.7,0,0,0,90.579,3.416Zm-.531,4.248-1.157-.028V4.526l1.157-.019c1.252-.009,1.915.588,1.915,1.584S91.3,7.674,90.048,7.664ZM100.336,4.6V3.416H94.95v8.847h5.386V11.078H96.353V8.395h3.29V7.285h-3.29V4.6Zm6.628,7.662h1.716L105.76,8.395a2.522,2.522,0,0,0,2.181-2.418,2.7,2.7,0,0,0-2.987-2.56h-2.816v8.847h1.413V8.489h.711ZM103.55,4.535h1.024c1.252,0,1.906.54,1.906,1.451s-.654,1.4-1.8,1.4H103.55Zm8.7,7.908c1.384,0,3.015-.711,3.015-2.551,0-1.4-1.09-2.219-2.427-2.683-1.328-.484-1.83-.863-1.83-1.593a1.293,1.293,0,0,1,1.413-1.2,2.47,2.47,0,0,1,1.783.787l.91-.939A3.675,3.675,0,0,0,112.426,3.2a2.657,2.657,0,0,0-2.864,2.427c0,1.621,1.109,2.19,2.57,2.712.9.322,1.65.74,1.65,1.6a1.438,1.438,0,0,1-1.6,1.29,2.659,2.659,0,0,1-2.2-1.109l-1,.958A4.092,4.092,0,0,0,112.255,12.444Zm8.989,0a4.522,4.522,0,0,0,4.694-4.627,4.69,4.69,0,0,0-9.378,0A4.508,4.508,0,0,0,121.244,12.444Zm0-1.252a3.215,3.215,0,0,1-3.224-3.376,3.227,3.227,0,1,1,6.448,0A3.209,3.209,0,0,1,121.244,11.192Zm12.4-7.775v6.6l-4.713-6.6h-1.327v8.847h1.375V5.683l4.713,6.581H135V3.416Zm9.217,8.847h1.517l-3.5-8.847H139.46l-3.5,8.847h1.517l.844-2.276,3.7-.019Zm-4.125-3.395,1.441-3.907L141.6,8.869Zm7.994,2.181V3.416H145.32v8.847h4.845V11.05ZM156.756,4.6V3.416H151.37v8.847h5.386V11.078h-3.983V8.395h3.29V7.285h-3.29V4.6Zm4.39,7.842c1.375,0,3.015-.711,3.015-2.551,0-1.4-1.1-2.219-2.437-2.683-1.328-.484-1.83-.863-1.83-1.593a1.293,1.293,0,0,1,1.413-1.2,2.455,2.455,0,0,1,1.783.787L164,4.26A3.675,3.675,0,0,0,161.307,3.2a2.657,2.657,0,0,0-2.864,2.427c0,1.621,1.109,2.19,2.57,2.712.9.322,1.65.74,1.65,1.6a1.433,1.433,0,0,1-1.6,1.29,2.659,2.659,0,0,1-2.2-1.109l-1,.958A4.1,4.1,0,0,0,161.146,12.444ZM172.1,3.416h-2.627v8.847H172.1c3.082,0,4.77-1.944,4.77-4.438C176.868,5.351,175.18,3.416,172.1,3.416Zm-.228,7.7h-1V4.564h1c2.38,0,3.527,1.29,3.527,3.262C175.4,9.817,174.25,11.116,171.87,11.116ZM183.941,4.6V3.416h-5.386v8.847h5.386V11.078h-3.983V8.395h3.29V7.285h-3.29V4.6Zm7.937-1.185h-2.627v8.847h2.627c3.091,0,4.779-1.944,4.779-4.438C196.657,5.351,194.969,3.416,191.878,3.416Zm-.218,7.7h-1V4.564h1c2.38,0,3.527,1.29,3.527,3.262C195.187,9.817,194.04,11.116,191.66,11.116Zm10.857,1.328A4.514,4.514,0,0,0,207.2,7.816a4.685,4.685,0,0,0-9.369,0A4.5,4.5,0,0,0,202.517,12.444Zm0-1.252a3.209,3.209,0,0,1-3.224-3.376,3.227,3.227,0,1,1,6.448,0A3.215,3.215,0,0,1,202.517,11.192ZM214.1,3.416h-6.277v1.2h2.446v7.643h1.413V4.621H214.1Zm6.789,8.847h1.517l-3.49-8.847H217.49l-3.5,8.847h1.527l.844-2.276,3.689-.019Zm-4.125-3.395,1.441-3.907,1.422,3.907Zm8.079,2.247,2.617-2.627A3.617,3.617,0,0,0,228.821,5.8c0-1.47-1.109-2.57-2.93-2.6a3.2,3.2,0,0,0-2.854,1.631l1.015.673a2.111,2.111,0,0,1,1.821-1.157,1.5,1.5,0,0,1,1.546,1.508,2.657,2.657,0,0,1-.948,1.84l-3.584,3.632v.939h6.126V11.116Z" transform="translate(15.181 -2.581)" fill="#fff"/>
    </g>
  </g>
</svg>
