<svg id="Logo" xmlns="http://www.w3.org/2000/svg" width="211.965" height="211.963" viewBox="0 0 211.965 211.963">
  <path id="Trazado_2" data-name="Trazado 2" d="M8.949,119.581a11,11,0,0,0,12.029-2.393l96.209-96.209A11.039,11.039,0,0,0,109.38,2.133H21.952a10.971,10.971,0,0,0-7.807,3.235L5.368,14.145a10.973,10.973,0,0,0-3.235,7.807v87.43a11.007,11.007,0,0,0,6.816,10.2Zm2.016-97.629a2.215,2.215,0,0,1,.647-1.561l8.781-8.779a2.186,2.186,0,0,1,1.559-.647h87.43a2.208,2.208,0,0,1,1.563,3.769L14.734,110.943a2.207,2.207,0,0,1-3.769-1.561Zm196.315,74.7a11,11,0,0,0-12.029,2.393L99.042,195.252A11.039,11.039,0,0,0,106.85,214.1h87.43a10.969,10.969,0,0,0,7.805-3.235l8.779-8.779a10.969,10.969,0,0,0,3.235-7.805v-87.43a11.009,11.009,0,0,0-6.818-10.2Zm-2.016,97.629a2.192,2.192,0,0,1-.647,1.561l-8.779,8.779a2.192,2.192,0,0,1-1.561.647H106.85a2.207,2.207,0,0,1-1.563-3.769L201.5,105.287a2.091,2.091,0,0,1,1.517-.658,2.32,2.32,0,0,1,.89.181,2.13,2.13,0,0,1,1.362,2.038v87.43ZM203.057,2.133H159.341a10.962,10.962,0,0,0-7.805,3.235L5.368,151.536a10.969,10.969,0,0,0-3.235,7.805v43.715a11.052,11.052,0,0,0,11.04,11.04H56.888a10.969,10.969,0,0,0,7.805-3.235L210.862,64.693a10.969,10.969,0,0,0,3.235-7.805V13.173A11.052,11.052,0,0,0,203.057,2.133Zm2.208,54.755a2.224,2.224,0,0,1-.647,1.563L58.449,204.618a2.2,2.2,0,0,1-1.561.647H13.173a2.208,2.208,0,0,1-2.208-2.208V159.341a2.193,2.193,0,0,1,.647-1.561L157.783,11.61a2.2,2.2,0,0,1,1.559-.645h43.715a2.21,2.21,0,0,1,2.208,2.208Z" transform="translate(-2.133 -2.133)" fill="#3da4b3"/>
</svg>
